Coordinates
version=1
nRows=8
nColumns=40
inDegrees=yes

Units are S.I. units (second, meters, Newtons, ...)
Angles are in degrees.

endheader
time	pelvis_tilt	pelvis_list	pelvis_rotation	pelvis_tx	pelvis_ty	pelvis_tz	hip_flexion_r	hip_adduction_r	hip_rotation_r	knee_angle_r	knee_angle_r_beta	ankle_angle_r	subtalar_angle_r	mtp_angle_r	hip_flexion_l	hip_adduction_l	hip_rotation_l	knee_angle_l	knee_angle_l_beta	ankle_angle_l	subtalar_angle_l	mtp_angle_l	lumbar_extension	lumbar_bending	lumbar_rotation	arm_flex_r	arm_add_r	arm_rot_r	elbow_flex_r	pro_sup_r	wrist_flex_r	wrist_dev_r	arm_flex_l	arm_add_l	arm_rot_l	elbow_flex_l	pro_sup_l	wrist_flex_l	wrist_dev_l
      0.90000000	     -2.06823967	     -3.76537958	      4.52477822	      0.99718314	      0.90942053	      0.54868954	     17.13611256	      5.91245259	     -5.26517503	     33.00803817	     33.00803817	     19.13380577	     -9.53365054	      0.03424738	     35.21183508	    -11.64668247	      4.11715742	     58.81113686	     58.81113686	     15.06142959	    -19.56623940	     23.04323902	    -12.74423349	      5.00784892	      1.75609334	     24.14956353	    -16.88187996	    -11.36690574	     53.40834018	     45.44190020	      0.00000000	      0.00000000	     -0.19846948	     -8.22790766	      7.19521097	     25.15465234	     44.84113719	      0.00000000	      0.00000000
      0.91785714	     -2.14980498	     -3.68664711	      5.16962708	      0.99496738	      0.90848401	      0.54853570	     17.15683025	      5.74628748	     -5.67517465	     33.35091662	     33.35091662	     19.63688856	     -9.70301301	      0.38570837	     35.99752177	    -11.16948039	      4.11432486	     55.89864506	     55.89864506	     14.02230720	    -19.50548077	     21.49261524	    -12.67319594	      4.92908470	      1.85072898	     25.71105046	    -16.92773075	    -11.28952858	     56.00564421	     45.36315757	      0.00000000	      0.00000000	     -1.95734697	     -8.24914902	      6.87039254	     25.31067468	     44.91235869	      0.00000000	      0.00000000
      0.93571429	     -2.25931675	     -3.76178138	      5.79506750	      0.99270632	      0.90762270	      0.54838016	     17.16868474	      5.75731508	     -6.08622156	     33.57259277	     33.57259277	     19.88241889	     -9.99270852	      0.31911000	     36.69645492	    -10.70777397	      4.35577047	     52.81685629	     52.81685629	     13.50575881	    -19.35962363	     21.79516164	    -12.44970352	      5.01459325	      2.61341716	     27.42692894	    -17.45388521	    -11.42265269	     56.81684405	     45.34985553	      0.00000000	      0.00000000	     -3.16912582	     -8.22032345	      6.86642310	     24.93084042	     44.89424608	      0.00000000	      0.00000000
      0.95357143	     -2.37766228	     -3.36315568	      6.45525785	      0.99042336	      0.90717687	      0.54780956	     17.10050937	      5.17278004	     -6.56668934	     33.79737306	     33.79737306	     20.35604872	     -9.92335356	      0.31820158	     36.88861717	     -9.74598415	      4.28611103	     49.17935104	     49.17935104	     11.82314047	    -19.25116698	     19.71176676	    -12.46272324	      4.59643579	      1.72193856	     29.70691148	    -16.65840315	    -11.16152063	     59.82963493	     45.24936885	      0.00000000	      0.00000000	     -5.25347155	     -8.33805982	      6.86188193	     24.88056644	     44.87146727	      0.00000000	      0.00000000
      0.97142857	     -2.47070230	     -3.25995787	      7.05127077	      0.98828531	      0.90709866	      0.54737420	     16.89401435	      4.95305220	     -7.01896874	     33.75026487	     33.75026487	     20.68974287	     -9.81119034	      0.60400890	     36.81563030	     -9.13957210	      4.35655447	     45.26094363	     45.26094363	      9.12329067	    -19.02091133	     15.04781449	    -12.38774300	      4.48210389	      2.02511093	     31.14441029	    -17.08147473	    -10.58719516	     62.50482873	     45.15992223	      0.00000000	      0.00000000	     -7.13142465	     -8.60055826	      6.79844413	     26.28559253	     44.87832701	      0.00000000	      0.00000000
      0.98928571	     -2.56327012	     -3.03095566	      7.59571864	      0.98617800	      0.90756731	      0.54667274	     16.57393669	      4.62127452	     -7.35510587	     33.51629997	     33.51629997	     20.84715954	     -9.85820574	      0.64553451	     36.64835270	     -8.26814626	      4.71461677	     41.66647770	     41.66647770	      7.97844517	    -18.56857015	     14.83121101	    -12.28522906	      4.21945421	      2.27786845	     33.06589915	    -17.16826965	    -10.57950282	     63.77439907	     45.12968387	      0.00000000	      0.00000000	     -8.25292891	     -8.66639584	      6.90341842	     26.05544613	     44.85098258	      0.00000000	      0.00000000
      1.00714286	     -2.68917660	     -2.92582620	      8.11658114	      0.98420811	      0.90826737	      0.54585772	     16.17932737	      4.36728426	     -7.87120611	     33.07631120	     33.07631120	     20.97578831	     -9.50165919	      0.67692018	     36.27608031	     -7.71520041	      4.83265501	     37.87166999	     37.87166999	      5.12835114	    -17.89227806	      9.70135439	    -12.16683907	      4.14460329	      2.40112864	     34.68715356	    -17.39609249	     -9.99006510	     66.25911817	     45.06152364	      0.00000000	      0.00000000	     -9.84678025	     -8.93770560	      7.47029334	     27.35352732	     44.77564246	      0.00000000	      0.00000000
      1.02500000	     -2.87592328	     -2.77250590	      8.55458811	      0.98222868	      0.90953932	      0.54497183	     15.72046197	      4.11501227	     -8.20209293	     32.37002782	     32.37002782	     20.91972006	     -9.30441370	      0.78441187	     36.05791732	     -7.10634174	      5.06968447	     34.76708887	     34.76708887	      4.48986195	    -16.41026821	      9.93404001	    -11.93200547	      3.93014690	      2.61683236	     36.51705288	    -17.38476580	     -9.97424775	     67.42034229	     45.03345294	      0.00000000	      0.00000000	    -10.67692428	     -8.94838874	      7.60735796	     27.16809360	     44.74660266	      0.00000000	      0.00000000
